<svg xmlns="http://www.w3.org/2000/svg" viewBox="0 0 64 64" width="64" height="64">
  <defs>
    <radialGradient id="bg" cx="50%" cy="50%" r="50%">
      <stop offset="0%" stop-color="#2a1510"/>
      <stop offset="100%" stop-color="#0d0d12"/>
    </radialGradient>
    <filter id="glow">
      <feGaussianBlur stdDeviation="2" result="blur"/>
      <feMerge><feMergeNode in="blur"/><feMergeNode in="SourceGraphic"/></feMerge>
    </filter>
  </defs>
  <rect width="64" height="64" rx="12" fill="url(#bg)"/>
  <g filter="url(#glow)" transform="translate(32,32)">
    <path d="M0,-16 Q6,-8 4,-2 Q8,-6 10,2 Q12,10 6,14 Q2,16 0,14 Q-2,16 -6,14 Q-12,10 -10,2 Q-8,-6 -4,-2 Q-6,-8 0,-16 Z" fill="#ff7043" opacity="0.8"/>
    <path d="M0,-6 Q3,-2 2,2 Q1,6 0,6 Q-1,6 -2,2 Q-3,-2 0,-6 Z" fill="#2a2410"/>
  </g>
</svg>